<svg width="40" height="40" viewBox="0 0 40 40" fill="none" xmlns="http://www.w3.org/2000/svg">
<g id="handshake_24dp_E8EAED_FILL0_wght400_GRAD0_opsz24 1">
<path id="Vector" d="M19.7917 33.3334C19.9028 33.3334 20.0139 33.3056 20.125 33.25C20.2361 33.1945 20.3195 33.1389 20.375 33.0834L34.0417 19.4167C34.375 19.0834 34.6181 18.7084 34.7709 18.2917C34.9236 17.875 35 17.4584 35 17.0417C35 16.5973 34.9236 16.1737 34.7709 15.7709C34.6181 15.3681 34.375 15.0139 34.0417 14.7084L26.9584 7.62504C26.6528 7.29171 26.2986 7.04865 25.8959 6.89587C25.4931 6.7431 25.0695 6.66671 24.625 6.66671C24.2084 6.66671 23.7917 6.7431 23.375 6.89587C22.9584 7.04865 22.5834 7.29171 22.25 7.62504L21.7917 8.08337L24.875 11.2084C25.2917 11.5973 25.5972 12.0417 25.7917 12.5417C25.9861 13.0417 26.0834 13.5695 26.0834 14.125C26.0834 15.2917 25.6875 16.2709 24.8959 17.0625C24.1042 17.8542 23.125 18.25 21.9584 18.25C21.4028 18.25 20.8681 18.1528 20.3542 17.9584C19.8403 17.7639 19.3889 17.4723 19 17.0834L15.875 14L8.58336 21.2917C8.50002 21.375 8.43752 21.4653 8.39586 21.5625C8.35419 21.6598 8.33336 21.7639 8.33336 21.875C8.33336 22.0973 8.41669 22.2987 8.58336 22.4792C8.75002 22.6598 8.94447 22.75 9.16669 22.75C9.2778 22.75 9.38891 22.7223 9.50002 22.6667C9.61114 22.6112 9.69447 22.5556 9.75002 22.5L15.4167 16.8334L17.75 19.1667L12.125 24.8334C12.0417 24.9167 11.9792 25.007 11.9375 25.1042C11.8959 25.2014 11.875 25.3056 11.875 25.4167C11.875 25.6389 11.9584 25.8334 12.125 26C12.2917 26.1667 12.4861 26.25 12.7084 26.25C12.8195 26.25 12.9306 26.2223 13.0417 26.1667C13.1528 26.1112 13.2361 26.0556 13.2917 26L18.9584 20.375L21.2917 22.7084L15.6667 28.375C15.5834 28.4306 15.5209 28.5139 15.4792 28.625C15.4375 28.7362 15.4167 28.8473 15.4167 28.9584C15.4167 29.1806 15.5 29.375 15.6667 29.5417C15.8334 29.7084 16.0278 29.7917 16.25 29.7917C16.3611 29.7917 16.4653 29.7709 16.5625 29.7292C16.6597 29.6875 16.75 29.625 16.8334 29.5417L22.5 23.9167L24.8334 26.25L19.1667 31.9167C19.0834 32 19.0209 32.0903 18.9792 32.1875C18.9375 32.2848 18.9167 32.3889 18.9167 32.5C18.9167 32.7223 19.007 32.9167 19.1875 33.0834C19.3681 33.25 19.5695 33.3334 19.7917 33.3334ZM19.75 36.6667C18.7222 36.6667 17.8125 36.3264 17.0209 35.6459C16.2292 34.9653 15.7639 34.1112 15.625 33.0834C14.6806 32.9445 13.8889 32.5556 13.25 31.9167C12.6111 31.2778 12.2222 30.4862 12.0834 29.5417C11.1389 29.4028 10.3542 29.007 9.72919 28.3542C9.10419 27.7014 8.72225 26.9167 8.58336 26C7.5278 25.8612 6.66669 25.4028 6.00002 24.625C5.33336 23.8473 5.00002 22.9306 5.00002 21.875C5.00002 21.3195 5.10419 20.7848 5.31252 20.2709C5.52086 19.757 5.81947 19.3056 6.20836 18.9167L15.875 9.29171L21.3334 14.75C21.3889 14.8334 21.4722 14.8959 21.5834 14.9375C21.6945 14.9792 21.8056 15 21.9167 15C22.1667 15 22.375 14.9237 22.5417 14.7709C22.7084 14.6181 22.7917 14.4167 22.7917 14.1667C22.7917 14.0556 22.7709 13.9445 22.7292 13.8334C22.6875 13.7223 22.625 13.6389 22.5417 13.5834L16.5834 7.62504C16.2778 7.29171 15.9236 7.04865 15.5209 6.89587C15.1181 6.7431 14.6945 6.66671 14.25 6.66671C13.8334 6.66671 13.4167 6.7431 13 6.89587C12.5834 7.04865 12.2084 7.29171 11.875 7.62504L6.00002 13.5417C5.75002 13.7917 5.54169 14.0834 5.37502 14.4167C5.20836 14.75 5.09725 15.0834 5.04169 15.4167C4.98614 15.75 4.98614 16.0903 5.04169 16.4375C5.09725 16.7848 5.20836 17.1112 5.37502 17.4167L2.95836 19.8334C2.48614 19.1945 2.13891 18.4931 1.91669 17.7292C1.69447 16.9653 1.61114 16.1945 1.66669 15.4167C1.72225 14.6389 1.91669 13.882 2.25002 13.1459C2.58336 12.4098 3.04169 11.75 3.62502 11.1667L9.50002 5.29171C10.1667 4.65282 10.9097 4.16671 11.7292 3.83337C12.5486 3.50004 13.3889 3.33337 14.25 3.33337C15.1111 3.33337 15.9514 3.50004 16.7709 3.83337C17.5903 4.16671 18.3195 4.65282 18.9584 5.29171L19.4167 5.75004L19.875 5.29171C20.5417 4.65282 21.2847 4.16671 22.1042 3.83337C22.9236 3.50004 23.7639 3.33337 24.625 3.33337C25.4861 3.33337 26.3264 3.50004 27.1459 3.83337C27.9653 4.16671 28.6945 4.65282 29.3334 5.29171L36.375 12.3334C37.0139 12.9723 37.5 13.7084 37.8334 14.5417C38.1667 15.375 38.3334 16.2223 38.3334 17.0834C38.3334 17.9445 38.1667 18.7848 37.8334 19.6042C37.5 20.4237 37.0139 21.1528 36.375 21.7917L22.7084 35.4167C22.3195 35.8056 21.8681 36.1111 21.3542 36.3334C20.8403 36.5556 20.3056 36.6667 19.75 36.6667Z" fill="#D95876"/>
</g>
</svg>
