<svg width="40" height="40" viewBox="0 0 40 40" fill="none" xmlns="http://www.w3.org/2000/svg">
<g id="location_on_24dp_E8EAED_FILL0_wght400_GRAD0_opsz24 1">
<path id="Vector" d="M20 20C20.9166 20 21.7013 19.6737 22.3541 19.0209C23.0069 18.3681 23.3333 17.5834 23.3333 16.6667C23.3333 15.75 23.0069 14.9653 22.3541 14.3125C21.7013 13.6598 20.9166 13.3334 20 13.3334C19.0833 13.3334 18.2986 13.6598 17.6458 14.3125C16.993 14.9653 16.6666 15.75 16.6666 16.6667C16.6666 17.5834 16.993 18.3681 17.6458 19.0209C18.2986 19.6737 19.0833 20 20 20ZM20 32.25C23.3888 29.1389 25.9027 26.3125 27.5416 23.7709C29.1805 21.2292 30 18.9723 30 17C30 13.9723 29.0347 11.4931 27.1041 9.56254C25.1736 7.63198 22.8055 6.66671 20 6.66671C17.1944 6.66671 14.8263 7.63198 12.8958 9.56254C10.9652 11.4931 9.99996 13.9723 9.99996 17C9.99996 18.9723 10.8194 21.2292 12.4583 23.7709C14.0972 26.3125 16.6111 29.1389 20 32.25ZM20 36.6667C15.5277 32.8612 12.1875 29.3264 9.97913 26.0625C7.77079 22.7987 6.66663 19.7778 6.66663 17C6.66663 12.8334 8.0069 9.51393 10.6875 7.04171C13.368 4.56949 16.4722 3.33337 20 3.33337C23.5277 3.33337 26.6319 4.56949 29.3125 7.04171C31.993 9.51393 33.3333 12.8334 33.3333 17C33.3333 19.7778 32.2291 22.7987 30.0208 26.0625C27.8125 29.3264 24.4722 32.8612 20 36.6667Z" fill="#D95876"/>
</g>
</svg>
